<svg xmlns="http://www.w3.org/2000/svg" height="200" width="200"><g fill="#5E889E"><path d="M176.855 30.636a5.963 5.963 0 0 0-4.229-1.751H27.372c-1.53 0-3.062.585-4.23 1.751a5.972 5.972 0 0 0-1.751 4.23v99.969h157.218V34.866a5.976 5.976 0 0 0-1.754-4.23zM100 32.233a1.78 1.78 0 1 1 0 3.561 1.78 1.78 0 0 1 0-3.561zm68.354 92.349H31.644V39.139h136.71v85.443zM21.391 138.966L.628 159.669a2.137 2.137 0 0 0 1.509 3.647h195.726a2.134 2.134 0 1 0 1.51-3.647l-20.764-20.703H21.391zm156.14 11.704a1.71 1.71 0 0 1 .257 1.827 1.71 1.71 0 0 1-1.554.993h-55.591l.312 1.429c.063.292 0 .609-.202.862a1.036 1.036 0 0 1-.8.379H80.044c-.297 0-.593-.131-.798-.379-.201-.253-.266-.57-.201-.862l.312-1.429H23.764a1.709 1.709 0 0 1-1.297-2.82l5.651-6.577H171.88l5.651 6.577z"/><path d="M197.862 164.6h-80.556a2.298 2.298 0 0 1-2.116 1.387H84.81a2.312 2.312 0 0 1-2.119-1.387H2.137a3.4 3.4 0 0 1-2.134-.757v2.145c0 1.311.501 2.624 1.501 3.623a5.106 5.106 0 0 0 3.625 1.504h189.74a5.095 5.095 0 0 0 3.623-1.504 5.096 5.096 0 0 0 1.504-3.623v-2.145a3.405 3.405 0 0 1-2.134.757zm-179.79 4.376a1.118 1.118 0 1 1 .004-2.236 1.118 1.118 0 0 1-.004 2.236zm5.374 0a1.119 1.119 0 1 1 .004-2.238 1.119 1.119 0 0 1-.004 2.238zm5.376 0a1.12 1.12 0 0 1 0-2.238 1.119 1.119 0 1 1 0 2.238z"/></g></svg>