<svg height="200" width="200" xmlns="http://www.w3.org/2000/svg"><g fill="#5E889E"><path clip-rule="evenodd" d="M124.319 104.53c.135.172.638.664.427.882-.104.103-.486-.534-.576-.602-.097-.07.088-.254.149-.28zm-.156-.063s.007-.001.008.004a1.24 1.24 0 0 0-.268-.425c-.18-.152-.022.365.26.421zm-23.017-6.974c-.012.019-.049.099 0 0zm0 0c.023-.06-.362.026-.413.135-.015.035.356-.015.413-.135zm28.062 9.2c.026-.065-.427-.145-.467-.133.032.088.399.294.467.133zm-24.774 43.514c.013.013.018.013.021.005.017-.015.027-.027.024-.027-.002.019-.017.026-.045.022zm-5.682-30.762c-.001-.371-.356.259-.354.259.254.067.354-.003.354-.259zm0-.001c0 .001 0 .001 0 0 0 .038.005.225 0 0zm1.624-15.837c-.106.002-.53-.172-.504-.07.066.262.458.231.594.104-.02-.039-.049-.051-.09-.034.03 0-.153.005 0 0zm.965 44.467c.144.03.076.016 0 0zm-3.026-28.331c.016-.007.039-.017.083-.039a.334.334 0 0 0-.083.039zm1.963-17.303c.069.075.582.392.655.204.056-.133-.578-.248-.655-.204zm-5.02 12.944c-.026-.063 0-.091.076-.084-.087-.229-1.616-.45-1.666-.201.008-.041.395.445.341.535-.108.184-.521.032-.66.017-.169-.017-.26.157-.063.175.235.021.885-.145.991.159.066.189.201-.074.243-.119.156-.167.333.022.432-.109.164-.21.517.103.652-.003.302-.239-.225-.316-.346-.37zm-1.972.441c-.045-.005.214.02 0 0zm10.167 31.26c-.053-.057.039.051 0 0zM96.5 115.65c-.018-.254-.556.263-.234.25.377-.01.888-.234.234-.25zm-3.229-.697a.13.13 0 0 0 .109-.067c.022-.137-1.417-.871-1.592-.961-.667-.346-1.677-.703-2.125.202.194.06.914-.661 1.055-.327a.297.297 0 0 1-.135.125c-.018.095 1.075.264 1.158.344.175.167-.015.434.368.4.384-.039-.107.367-.107.371.019.073 1.145-.042 1.267-.087-.036.013-.251.096.002 0zm-.912-2.286c.015.074-.006-.022 0 0zm.035.442c.024-.007-.032-.408-.035-.442-.037-.194-.365.491.035.442zm-.695 2.647c-.223.06.257.318.456.244.077-.032.158.071.222-.016.151-.199-.612-.248-.678-.228zm0 0c.239-.063-.04.008 0 0zm44.86 6.053c-.003-.01-.003-.018-.003-.025-.002.105-.005.213-.005.319.003.032.008-.047.008-.294zM31.173 86.056l-2.103 3.847h4.144l-2.041-3.847zm17.497 2.268c.142-.109.212-.305.212-.585v-1.137c0-.274-.07-.467-.212-.578-.14-.109-.4-.166-.782-.166H42.94v2.631h4.947c.383.001.643-.055.783-.165zm16.015.532c0-.965-.262-1.698-.786-2.196-.528-.498-1.301-.749-2.329-.749h-3.901V91.9h2.848c1.513 0 2.589-.238 3.221-.708s.947-1.252.947-2.336zm-32.516 75.801h4.481v-4.076h-4.481v4.076zm-18.784 0h4.478v-4.076h-4.478v4.076zm78.691-59.135h.001-.001zm-69.299 59.135h4.48v-4.076h-4.48v4.076zm112.461-37.415v.012c.008-.049.04-.302 0-.012zm-43.014-23.607c.152-.08-.024.01 0 0zm10.99 43.238c-.078.025-.159.267-.037.218.069-.028.221-.162.299-.147v-.003c-.073-.087-.158-.113-.262-.068zm27.61 17.784h4.479v-4.076h-4.479v4.076zm-18.785 0h4.477v-4.076h-4.477v4.076zm9.392 0h4.479v-4.076h-4.479v4.076zm15.125-42.874c0-.026.003-.052.003-.077-.007-.106-.02-.213-.027-.321.009.131.016.264.024.398zm-9.087-16.246l-.022-.025c.002.016.015.026.03.038 0-.007-.003-.01-.008-.013zm-71.807 59.12h4.48v-4.076h-4.48v4.076zm9.394 0h4.48v-4.076h-4.48v4.076zm-18.787 0h4.48v-4.076h-4.48v4.076zm42.277 0h4.479v-4.076h-4.479v4.076zm-9.394 0h4.479v-4.076h-4.479v4.076zm18.786 0h4.481v-4.076h-4.481v4.076zM86.213 124.91c-.095-.053.069.416.03.445.142-.067.069-.177.158-.275.005.005-.13-.14-.188-.17zm23.507-28.294c.14-.058.399.238.584.104-.123-.14-.354-.124-.39-.336-.047-.281.078-.35-.286-.485.021-.016-.366-.183-.469-.206-.283-.056-.045-.203-.154-.355-.064-.092-.373-.011-.443-.005-.406.029-.822-.119-1.238-.097-.542.032-1.068.184-1.616.142-.825-.061-2.479-.137-3.156.431.038.003.157-.005.18.048-.142.106-.25.02-.396.161.074-.071.093-.001.064.02.469.199 2.502-.689 2.521-.431.007.112-1.081.142-1.015.408.036.143.755.019.883.046.533.107.06.558.169.699.018.021.554-.048.563.106-.069-.128-1.194.415-.348.273.066-.009.187-.157.241-.115.175.145-.058.27-.182.265-.927-.046-.037 1.884.782 1.75.429-.067.699.53.961-.103.093-.223.125-.479.374-.591.182-.083-.018-.357.043-.377.273-.102.51-.154.796-.21.342-.064.402-.323.678-.461.11-.056 1.463-.196 1.344-.443-.104-.214-.878.165-.87-.114.355.176.156-.031.38-.124zm-9.511.009c.217.025.416-.064.617-.127-.201.063.021-.006 0 0 .107-.033-.442-.027-.617.127zm1.044-.556c-.119.036-.024.002 0 0-.142.002-.371-.003-.459.148.507.196.15-.064.459-.148zm9.514 1.617c.04.061.095.074.159.037-.05-.01.174-.011 0 0 .052.001.103.001.151.004.028.058.022.097-.015.116.194-.061.326.26.551.238.199-.019 1.232.17 1.226-.308-.008-.492-2.075-.136-2.072-.087zm-8.994-1.605c-.024-.124-.601.197-.411.242.29.071.862.067 1.109-.103-.179-.099-.65.142-.698-.139zm2.249 28.405a.279.279 0 0 0 .078-.151c-.165-.005-.312.301-.12.251-.002 0 .464-.072.318-.121.023.007-.276.01-.276.021zm44.673-36.61v71.375c0 7.633-6.246 13.878-13.88 13.878H13.878C6.245 173.129 0 166.884 0 159.251V87.876c0-7.635 6.245-13.878 13.878-13.878h120.937c7.634 0 13.88 6.243 13.88 13.878zm-13.126 36.372c.244.313.259-.579.252-.464.025-.378.087-.578-.02-.929.024.077-.046.072-.041.039-.233.22-.347 1.152-.191 1.354zm.037 3.664c-.121.5-.321 2.098-.264 2.11.04.01.212-1.351.279-1.966.008-.038.021-.117.027-.276 0 .035-.011.137-.027.276-.018.072-.032-.027-.015-.144zm-3.474-18.234c.058.221.291.474.408.665.352.563.71 1.121 1.036 1.698.583 1.031 1.132 2.163 1.53 3.278l.008.02v-.004c.004.012.004.01.004.017.093.242.234.462.349.693-.694-2.324-1.778-4.367-3.139-6.37-.027-.044-.253-.196-.196.003zm3.106 17.564c0 .005 0 .008-.002.015-.003.052.014.089.063.103.086-.016-.057-2.317-.063-2.566-.165.828.102 1.641.002 2.448zm-.106.112c-.195.07-.3.182-.27.451.053-.05.27-.333.267-.438 0 .012.008.029.003-.013zm-9.875-26.514c.286.216.572.433.85.662a25.39 25.39 0 0 0-.631-.506c-.072-.053-.147-.101-.219-.156zm-30.293-2.843c.162-.064.326-.132.49-.187-.098.145-.299.262-.451.334.304-.109.655-.172.903-.402-.109-.037-.206.113-.294-.022a3.96 3.96 0 0 1 .578-.302c-.413.186-.822.378-1.226.579zm.622 6.798c.508-.313-.721-.18-.946 0 .024-.02.13-.106-.001.002l.001-.002-.001.002c-.189.158.781.1.947-.002zm-2.35.625c-.202.21 1.491-.008 1.439-.352-.024-.149-1.351.258-1.439.352zm.348-6.236c.092.022.768-.206.686-.365-.033-.067-.632.299-.686.365zm-.676.67a.443.443 0 0 0 .127-.055c.218-.064.654-.156.644-.218-.019-.114-.429.111-.644.218-.082.026-.135.042-.127.055zm-.633 2.467c.17.013.747-.912.786-1.029.014-.064-.35.096-.44.018-.227-.199-.323.422-.213.34.41-.308.004.599-.133.671zm-.051 1.314c.18-.093.361.067.562-.048.194-.112.365-.138.456.115.13.351 1.213-.347.863-.519-.022-.011-.206.037-.157-.075.122-.292-.113-.14-.246-.231-.541.147-1.009.518-1.478.758zm-.148 1.886v.002-.002.002c.016.012.027.022.001 0 .196.164.606-.474.636-.603.093-.386.442-.559.739-.755.889-.578.052.593.036.57.045.077.222-.095.27-.107.169-.048-.029.296-.001.334.114.138.659-.662.686-.762.191.281.482.216.368-.163-.119-.396-.973-.177-1.245-.132-.495.08-.732.225-.972.655-.081.146-.723.775-.518.961zM55.468 93.68h5.522c.952 0 1.735-.058 2.347-.175.612-.116 1.125-.302 1.537-.559a4.119 4.119 0 0 0 1.536-1.669c.366-.707.548-1.502.548-2.384 0-1.492-.466-2.644-1.399-3.453-.936-.813-2.27-1.218-4.006-1.218h-6.084v9.458zm11.48 41.615v-6.499h-9.601a.991.991 0 0 0-.991.989v4.517c0 .546.445.993.991.993h9.601zm-9.601 1.981H12.176c.485 3.348 3.378 5.947 6.858 5.947h40.975c3.479 0 6.372-2.6 6.859-5.947h-9.521zm9.601-10.464v-6.497h-9.601a.991.991 0 0 0-.991.989v4.518c0 .546.445.99.991.99h9.601zm0-8.481v-6.497H33.985c.111.312.182.641.182.99v4.516c0 .765-.297 1.455-.771 1.982.474.528.771 1.219.771 1.981v4.518c0 .765-.297 1.455-.771 1.981.474.527.771 1.221.771 1.982v4.517c0 .351-.071.68-.182.993h20.572a2.907 2.907 0 0 1-.185-.993v-4.517c0-.762.302-1.455.776-1.982a2.955 2.955 0 0 1-.776-1.981v-4.518a2.978 2.978 0 0 1 2.975-2.973h9.601zm-.08-8.479c-.487-3.351-3.38-5.95-6.859-5.95H19.034c-3.48 0-6.374 2.6-6.858 5.95h54.692zM40.772 93.68h2.168v-3.57h2.085l3.812 3.569h3.158l-4.366-3.569h1.235c.752 0 1.296-.148 1.63-.44.339-.292.508-.757.508-1.395v-2.22c0-.644-.169-1.112-.508-1.401-.334-.289-.878-.434-1.63-.434h-8.092v9.46zm-15.934 0h2.192l1.101-2.067h5.995l1.135 2.067h2.471l-5.423-9.458h-2.12l-5.351 9.458zm-12.744-2.237c0 .864.162 1.454.483 1.767.321.313.943.469 1.862.469h5.647c.911 0 1.531-.156 1.855-.469.326-.313.488-.903.488-1.767v-1.118l-2.202-.458V91.9h-5.932v-5.988h5.932v1.791l2.202-.35v-.895c0-.857-.163-1.445-.488-1.762-.325-.316-.945-.474-1.855-.474h-5.647c-.919 0-1.541.158-1.862.474s-.483.904-.483 1.762v4.985zm0 26.888h19.1a.993.993 0 0 0 .991-.991v-4.516a.992.992 0 0 0-.991-.99h-19.1v6.497zm0 8.481h19.1a.992.992 0 0 0 .991-.99v-4.518a.991.991 0 0 0-.991-.989h-19.1v6.497zm0 8.483h19.1a.994.994 0 0 0 .991-.993v-4.517a.991.991 0 0 0-.991-.989h-19.1v6.499zm7.087 25.7c0-.572-.098-.964-.299-1.171-.198-.207-.578-.312-1.137-.312h-4.241c-.554 0-.932.104-1.131.312-.201.207-.3.599-.3 1.171v3.306c0 .575.1.964.3 1.173.199.208.577.31 1.131.31h4.241c.559 0 .939-.102 1.137-.31.201-.209.299-.598.299-1.173v-3.306zm9.393 0c0-.572-.098-.964-.299-1.171-.199-.207-.579-.312-1.137-.312h-4.241c-.554 0-.93.104-1.132.312-.199.207-.299.599-.299 1.171v3.306c0 .575.1.964.299 1.173.202.208.578.31 1.132.31h4.241c.559 0 .938-.102 1.137-.31.201-.209.299-.598.299-1.173v-3.306zm9.393 0c0-.572-.1-.964-.3-1.171-.197-.207-.578-.312-1.136-.312h-4.24c-.554 0-.935.104-1.132.312-.199.207-.299.599-.299 1.171v3.306c0 .575.1.964.299 1.173.197.208.578.31 1.132.31h4.24c.558 0 .938-.102 1.136-.31.201-.209.3-.598.3-1.173v-3.306zm14.1 0c0-.572-.103-.964-.3-1.171-.201-.207-.579-.312-1.136-.312h-4.244c-.554 0-.93.104-1.129.312-.201.207-.302.599-.302 1.171v3.306c0 .575.101.964.302 1.173.199.208.575.31 1.129.31h4.244c.557 0 .935-.102 1.136-.31.197-.209.3-.598.3-1.173v-3.306zm9.392 0c0-.572-.1-.964-.299-1.171-.201-.207-.578-.312-1.135-.312h-4.246c-.552 0-.93.104-1.129.312-.199.207-.301.599-.301 1.171v3.306c0 .575.102.964.301 1.173.199.208.577.31 1.129.31h4.246c.557 0 .935-.102 1.135-.31.199-.209.299-.598.299-1.173v-3.306zm9.394 0c0-.572-.1-.964-.302-1.171-.198-.207-.579-.312-1.133-.312h-4.245c-.553 0-.93.104-1.131.312s-.299.599-.299 1.171v3.306c0 .575.098.964.299 1.173.201.208.578.31 1.131.31h4.245c.554 0 .935-.102 1.133-.31.202-.209.302-.598.302-1.173v-3.306zm14.096 0c0-.572-.098-.964-.299-1.171-.199-.207-.58-.312-1.137-.312h-4.241c-.554 0-.93.104-1.131.312-.199.207-.298.599-.298 1.171v3.306c0 .575.1.964.298 1.173.201.208.577.31 1.131.31h4.241c.558 0 .938-.102 1.137-.31.201-.209.299-.598.299-1.173v-3.306zm9.394 0c0-.572-.098-.964-.299-1.171-.199-.207-.578-.312-1.137-.312h-4.241c-.554 0-.933.104-1.131.312-.201.207-.3.599-.3 1.171v3.306c0 .575.1.964.3 1.173.198.208.577.31 1.131.31h4.241c.559 0 .938-.102 1.137-.31.201-.209.299-.598.299-1.173v-3.306zm9.393 0c0-.572-.1-.964-.299-1.171-.197-.207-.58-.312-1.138-.312h-4.244c-.554 0-.928.104-1.127.312-.201.207-.3.599-.3 1.171v3.306c0 .575.1.964.3 1.173.199.208.574.31 1.127.31h4.244c.558 0 .94-.102 1.138-.31.199-.209.299-.598.299-1.173v-3.306zm14.098 0c0-.572-.1-.964-.299-1.171s-.578-.312-1.139-.312h-4.24c-.555 0-.93.104-1.128.312-.202.207-.304.599-.304 1.171v3.306c0 .575.102.964.304 1.173.198.208.573.31 1.128.31h4.24c.561 0 .939-.102 1.139-.31.199-.209.299-.598.299-1.173v-3.306zm9.395 0c0-.572-.102-.964-.301-1.171-.2-.207-.578-.312-1.137-.312h-4.242c-.556 0-.93.104-1.129.312-.201.207-.303.599-.303 1.171v3.306c0 .575.102.964.303 1.173.199.208.573.31 1.129.31h4.242c.559 0 .937-.102 1.137-.31.199-.209.301-.598.301-1.173v-3.306zm9.391 0c0-.572-.1-.964-.299-1.171s-.58-.312-1.136-.312h-4.244c-.554 0-.929.104-1.129.312-.201.207-.301.599-.301 1.171v3.306c0 .575.1.964.301 1.173.2.208.575.31 1.129.31h4.244c.556 0 .937-.102 1.136-.31.199-.209.299-.598.299-1.173v-3.306zm.014-37.975c-.011-.408-.05-.808-.075-1.211v-.103c-.016-.204-.022-.299-.03-.336v-.018c-.02-.074.005.665.022.75-.022 1.126-.147 2.247-.246 3.365-.115 1.348-.159 2.708-.403 4.043-.228 1.249-.859 2.194-1.325 3.341-.186.468-.274.975-.443 1.447-.205.576-.65.954-.878 1.499-.431 1.015-1.112 1.979-1.858 2.783-.321.349-.694.803-1.218.795-.254-.008-1.006.65-.867 0 .103-.477.404-.84.501-1.328.103-.543.064-1.089.17-1.611.241-1.146.623-2.096.545-3.291-.076-1.179.164-2.05.586-3.163.197-.519.568-.788.441-1.405-.115-.581.089-1.031-.065-1.597-.145-.521-.1-1.041-.359-1.532-.23-.431-.553-.845-.682-1.325-.1-.386.119-.877.09-1.3-.038-.597.248-.949-.21-1.483-.365-.426-.647.167-1.043-.027-.372-.181-.205-.874-.72-.991-.469-.106-1 .27-1.358.506-.231.152-.478.286-.715.426-.165.093-.744-.167-.975-.148-.423.034-1.081.617-1.449.44-.498-.239-.854-.615-1.288-.941-.373-.272-.752-.35-.974-.771-.112-.207-.145-.474-.279-.665-.162-.222-.488-.421-.692-.61-.149-.142-.364-.241-.307-.501-.266-.049-.381.076-.558-.231-.143-.251.012-.527-.112-.754-.145-.255-.403-.349-.184-.665.184-.265.161-.882.156-1.193-.003-.344-.296-.541-.323-.843-.035-.363-.019-.389-.287-.66-.342-.349.098-1.234.282-1.597.124-.248.081-.533.116-.8.027-.213.252-.244.295-.466.127-.612.751-.587.959-1.215.109-.336-.105-.386-.19-.689-.072-.255.022-.716.18-.918.162-.214.399-.224.429-.538.042-.438-.167-.669.321-.393.473.264 1.009.027 1.351-.25.246-.203.216-.248.524-.348.147-.05.94-.104.977-.138.23-.219.449-.022.696-.109.341-.124.158-.119.503-.013.321.1-.023-.052.209.294l.318.282c.15.196-.054.413.068.574.355.462 1.028.324 1.479.523.258.112.33.404.583.508.299.122.558.234.852.374.374.178-.581-1.457.106-1.113.307.151.534.331.872.456.18.067.364.139.544.212.258.106.037-.17.19-.237.016-.003.511.291.397-.007-.155-.408-.447-.822-.683-1.19-.205-.335-.467-.634-.671-.972-.147-.237-.146.23-.129.219-.1.064-.376-.314-.437-.214-.03.044.122.156.027.214-.201.119-1.025-.739-1.128-.893-.122-.19-.387-.296-.479-.489-.133-.265.269-.08.182-.267-.122-.257.015-.173-.017-.469-.03-.305.709.324.797.206.162-.222-.919-.958-1.032-1.044-.166-.124-.674-.685-.628-.231-.002-.064-.603-.271-.465-.433.062-.07.259.278.376.14.057-.067-.438-.598-.518-.556-.072.042.057.238.063.275.04.217-.365-.086-.405-.044-.08.069.53.81.595.899.172.241.349.498.563.71.085.084.445.247.485.341-.045-.098-.194.26-.145.215-.076.069-.299-.228-.361-.055-.047.121-.069.318.021.4.152.143.567.386.667.554.127.213.16.443.308.67-.271-.043-.546-.29-.803-.554-.005-.015-.015-.029-.024-.042a.03.03 0 0 0 .002.017c-.204-.213-.396-.431-.57-.557-.364-.272-.576-.743-.984-.938-.491-.236-.972-.443-1.419-.755-.085-.063-.671-.401-.728-.348-.205.213.643.699.772.781.203.125.41.249.592.406.069.06.366.082.382.107.248.376.786.318 1.036.704-.005-.004-.008-.004-.01 0-.406-.045-.501-.231-.09.208.087.097.281.498.112.604-.118.074.181.376.185.459-.104-.003-1.055-.411-.78-.504.189-.064.328.142.483-.103.142-.23-.347-.569-.481-.662-.503-.341-1.088-.55-1.611-.854-.172-.102-.864-.81-1.094-.646-.015.01-.199.417-.206.444-.033.137-.521-.046-.596-.065-.446-.111.119.658.074.738-.162.273-.702.691-.148 1.038.264.167-.127.535-.108.681.03.248-.148.229-.32.246-.236.022-.581.297-.771.278-.154-.02-.275-.259-.397-.334-.158-.097-.483-.004-.673.008-.013.001-.616-.719-.621-.742-.099-.522-.148-.962-.525-1.385-.657-.73 1.91-.156 1.938-.438.056-.53-.59-.921-.929-1.174-.116-.084-1.133-.41-1.105-.525.052-.261.591.07.705-.099.084-.127-.268-.203-.215-.294.064-.107.563.244.578-.247.007-.366-.199.018.062-.366.085-.129-.137-.466-.055-.511-.05-.302.352-.157.395-.288.062-.199-1.276-.785-1-1.018.148-.127 1.259 1.2 1.42.904.189-.341.457.175.619-.055.249-.354.208-.029.503-.146-.227-.348-.506-.467-.808-.772-.057-.058-.541-.578-.525-.612.065-.151.162.03.219-.149.075-.231-.416-.464-.61-.411.1.104.277.206.414.253-.083.113-.612.187-.797.066-.197-.125-1.963-1.299-2.036-1.165-.089.161 1.513 1.186 1.719 1.234.274.064 1.41 1.057 1.166 1.303-.116.119-1.815-1.128-1.848-.871-.067.538-.616.027-.924-.143-.437-.241-.888-.395-.827-.958.036-.339-.748-.816-.978-.993-.45-.339-.203-.504.3-.379.585.145 1.197.225 1.763.44.096.036.04.158.135.193.362.137.713.312 1.092.405-.096-.083-.531-.257-.543-.37.153.22 1.056.443 1.315.563.633.295 1.253.613 1.858.956a27.762 27.762 0 0 1 .032.018l-.032-.018a28.628 28.628 0 0 0-14.85-3.689 28.776 28.776 0 0 0-10.897 2.446c.198-.085.405-.162.604-.238.345.239-.183.206-.137.371.027.106.582.048.601-.085.011-.102-.154-.072-.055-.17.175-.185.344-.172.561-.268.498-.225.859-.622 1.457-.636-.034.06-.289.132-.257.209.055.128.222-.002.307.006-.148.279-1.136.8-1.441.726-.153-.041-.432.228-.185.247.127.01.689-.222.728-.199.082.048-.111.097-.031.158.248.186 1.06-.771 1.468-.715-.088.186-.482.502-.66.599.053-.01.302-.161.333-.077.058.154-.432.148-.342.315.037.077.532-.196.583-.217.344-.137.458-.175.333-.423-.05-.103 1.025-.638 1.078-.485.009.016-.353.239-.377.309.117-.071.901-.556.984-.315.025.074-.127.141-.165.166.072.004.613-.161.666-.068-.023.158.047.233.221.227.041.029.342.135.326.241-.02.119-.394.181-.24.316.181.157.521.166.722.31-.093.119-.62.456-.774.379-.132-.067-.304-.498-.471-.152-.12.252.304.262.076.591-.238.349-.485-.157-.635.006-.064.069.202.201.155.286-.082.152-.876-.133-.904-.243-.128-.501-.832-.103-.888-.307-.053-.185 1.704-.3 1.687-.776-.05-.943-1.221-.092-1.524.149-.109.086-.797.354-.827.249-.045-.158-.222.085-.071.337.051.09.035.483-.153.276-.175-.196-.319-.025-.504.016a1.52 1.52 0 0 1-.333-.035c.024-.083.391-.125.297-.257-.117-.156-2.029.78-2.255.902a7.33 7.33 0 0 0-.832.537c.13-.096-.154.522-.188.572.167.066.219-.096.426.031.254.159.254.509.626.511.511.008.182.246 0 .509-.061.087-.206.895.021.757.406-.246.784-.535.85-1.065.015-.107 1.002-.424 1.152-.614.048-.058.262-.347.162-.435-.278-.243.173-.318.313-.431.5-.406.389-.758 1.097-.689.13.013.352-.112.448.043.018.027.391.387.391.3-.002.309-.438.286-.097.584.426.37.789-.511 1.131-.482.175.016.292.943.329 1.118.067.36.774.321.799.479.011.09-.151.036-.174.097.212.035.892.507.387.713-.486.199-1.216.613-1.731.62-.678.009-1.312-.116-1.91.234-.52.309-1.02.533-1.486.935.231-.016.447-.265.635-.382.286-.171.599-.276.917-.357.121-.03.671-.208.702.067.034.321-.607.179-.696.28.109.063.283.038.351.077.013.006-.111.389-.06.479.175.309.598.212.88.25.075.012.345-.382.439-.441.144-.092.172.267.054.342-.591.386-1.362.415-1.905.868-.189.155-.35-.114-.187-.258.28-.244.561-.252.887-.372.06.008-.464-.057-.252-.132-.673.241-1.512.431-2.111.832-.117.085-.22.189-.307.305-.077.111 0 .371-.051.418-.257.231-.763.109-1.062.286.034.042.203.022.243.024-.026.11-.467.158-.577.285-.027.031-.647.615-.609.43-.188.905-.565.183-.168-.111-.175.111-.203.199-.291.378-.098.194-.161-.01-.233.067a.771.771 0 0 1 .178.195c-.042.081-.077.106-.104.071.001-.035-.008-.045-.026-.022.17.163-.112.168-.069.299.048.135.215.07.106.263-.034.06-.309.154-.276.198-.032-.044.374.08.149.159-.072.023-.357.23-.354.23.027.012.096.01.076.062-.034.083-.671.349-.773.414-.334.221-.678.456-.993.7-.493.386-.589.797-.599 1.392-.003.35.189 1.684-.366 1.809-.554.13-.271-1.833-.416-2.098-.085-.157-.172-.092-.291-.031-.309.159-.203-.063-.426-.192-.135-.079-1.193-.04-1.248.039.011-.015.061.409.087.447-.008-.016-.453.092-.529.027-.013-.011-.091-.329-.189-.223-.166.167-.246-.035-.415-.02-.335.03-.435.233-.674.408-.403.294-.729.414-.898.941-.228.729-.745 1.403-.835 2.2-.085.763-.034 2.053.945 1.712.331-.113.347.02.583-.207.299-.285.291-.855.605-1.071.151-.105.97-.347 1.075-.1.091.204-.402.697-.447.937a1.324 1.324 0 0 1-.124.365c-.06.13-.121-.039-.161.018-.229.305-.098.808-.373 1.146-.267.323.349.204.507.22.26.026.48-.105.747-.061.344.061.138.143.349.289.458.318-.198 1.442-.204 2.021-.003.784.749 1.4 1.399.916.243-.185.685-.087.848.154.325.474.416.036.707-.199.206-.164.159.031.207-.187.045-.202.039-.418.215-.563.228-.187.699-.241.998-.369.14-.06.563-.612.728-.354.162.257-.514.242-.257.665.18.292-.371.556-.047.902.395.42.154-.895.135-.825.093-.294.844-.431 1.084-.366.538.138.138.521.824.429.106-.013.377-.098.491.016.143.148.344.256.556.181.469-.166.697-.326 1.226-.311-.361.116-.161.455.109.315-.006.005-.011.008 0 0-.053.08.532.208.535.439.006.299.639.428.902.652.124.104.138.405.275.446.225.066.381.241.54.397.234.22 1.068-.015 1.389.05.508.1.799.34 1.192.646.406.325.439.694.639 1.155.129.279.54.151.365.593-.053.124-.284.247-.369.355-.278.347.096.105-.005.372.054.013 1.154-.426 1.166-.027.019.709-.739.433-.971.747.243.156.575-.267.497.234.113-.3.438-.327.546-.585.123-.292.2-.404.541-.298.68.207 1.6.289 1.33 1.176.229-.181.429-.405.753-.363.326.042.836.287 1.165.173.925-.321 1.478 1.223 2.454 1.013.789-.169.583 1.709.318 2.088-.288.409-.692.726-.974 1.142-.17.249-.269.796-.567.587-.149-.102-.16 1.336-.136 1.447.085.396-.129.927-.323 1.244-.229.37-.035.836-.446 1.205-.206.187-.071.556-.323.646-.147.052-.27.338-.341.344-.493.059-.886.044-1.311.271-.458.249-.928.447-1.363.906-.393.419-.007.874-.182 1.335-.032.083-.842 1.023-.703 1.106-.084-.056.04-.152.003-.217-.124-.229-.366.292-.388.334-.07.074-.143.151-.212.227.005.098.004.199-.006.299.023-.047-.789.394-.471.483.072.022.08-.321.239-.209.149.106-.378.678-.482.731-.282.149-1.659-.194-1.675-.172-.142.235.466.308.565.446-.003.11.003.222.033.331.071.07.405.101.309.284-.458.874-1.026.734-1.911.837.05.231.125.451.231.662.17.345-.932.058-.961.07-.085.025.474.797.36.911-.223.22.236.402-.156.611-.419.225-.259.5.125.665.213.089.655.156.313.455-.229.2-.188.435-.376.676-.069.09.542.66.623.728.177.152.391.271.607.347.103.036.464.041.527.114.001.005-.739.241-.868.219-.001-.002-.005-.002-.009-.003a.012.012 0 0 0 .008.003l-.012-.003h-.003.002-.007c-1.224-.264-2.358-.832-3.069-1.902-.198-.295-.023-.178.035-.436.079-.377-.477-.063-.45-.325.022-.248-.235-.691-.122-.855.093-.128.213.154.262.161.188.034-.577-1.622-.342-.692.072.287-.161.428-.168.214-.021-.299-.167-.528-.276-.79-.132-.313-.061-.503-.234-.81-.27-.476-.225-.515-.215-1.041.008-.479.051-.959-.081-1.427-.07-.234-.189-.424-.302-.636-.079-.157.067-.384-.01-.485-.242-.334-.152-.745-.173-1.128-.027-.536-.156-1.05-.238-1.58-.119-.774-.234-1.604-.469-2.423-.039-.138-.615-.529-.758-.621-.476-.307-1.033-.471-1.487-.817a3.6 3.6 0 0 1-.558-.546c-.128-.158-.037-.358-.151-.54-.276-.45-.609-.859-.868-1.328-.437-.787-.769-1.512-1.468-2.072.067.051-.101-.515-.097-.501-.136-.58.194-.547.413-1.004.103-.222-.516-.222-.36-.557.035-.08-.037-.396-.021-.462.048-.212.17-.393.246-.596.048-.146-.066-.273.086-.388.095-.07.305-.09.354-.212.122-.304.051-.504.361-.68.842-.48-.085-3.413-.514-3.182-.477.259-.17 1.195-.641.673-.215-.239-.77-.255-.97-.418.006.002-.3-.895-.464-.756-.006.005.048.262-.063.168-.255-.215-.182-.498-.177-.82.046.02.546.326.356-.042-.299-.575-.212-.112-.352.045-.005-.005-.005-.006-.005-.003-.234-.092-.561-.954-.572-.943-.363.343-1.37-.598-1.503-.885-.443-.961-.842-.003-1.503-.583-.455-.4-1.385-1.11-1.282-1.826.064-.411.286-.729.292-1.166.008-.434.048-1.003-.109-1.41-.087-.222.091-.688.093-.954a3.818 3.818 0 0 1 .344-1.549c.077-.17 0-.438-.152-.192-.25.414-.323.962-.422 1.428-.052.242-.354 2.411-.476 2.395.003 0-.039-.775-.037-.815.031-.438.158-.678.114-1.131-.032-.315.34-.492.34-.841-.005-.402.193-.763.326-1.135.156-.436.389-.852.384-1.327-.003-.409.422-.857.612-1.2.486-.859 1.068-1.627 1.722-2.367 1.107-1.255 2.273-2.588 3.577-3.644.128-.101.249-.207.379-.307-.095.074-.191.148-.281.222-.034.025-.066.058-.098.085-6.915 5.43-11.271 13.929-11.027 23.386.361 14.039 10.709 25.466 24.07 27.67a26.905 26.905 0 0 1-2.09-.436c.112-.001 1.102.209 1.119.127.01-.048-.912-.272-1.057-.369.765-.039 1.669.085 2.425.217.005.002.715-.201.886-.151-.188-.112-1.014-.294-1.017-.381-.005-.104.925-.24.952-.054-.035-.224.12-.193-.206-.338 0 0-.271-.02-.268-.082-.004.076.469-.371.586-.488.005-.005.008-.018.03-.027.361.1.913-.404 1.369-.317-.045.025-.532.21-.445.244-.152-.062-.411.105-.401.268 0 .017.464.592.508.643.16.185.384.302.578.442.159.108.177.343.381.374.308.046.615.092.925.132 1.475.181 2.803-.029 4.22-.458.676-.199 1.353-.334 2.043-.49.596-.137 1.292-.064 1.823-.387.194-.119.109.109.297.103.266-.011.528-.02.794-.047.548-.063 1.164-.027 1.684-.183-.278.082.083-.022 0 0 .125-.092.212-.095.265-.012-.678.273-1.367.521-2.063.742 11.975-3.74 20.517-15.054 20.181-28.209zm-40.68 9.789c-.112-.124-.288-.315-.438-.393-.136-.07-.157.199-.114.239.094.099.802.426.552.154.093.105-.114-.126 0 0zm4.608 14.501c-.247-.085-.086.201-.077.225.087.253.09.013.233.129.018.015.041.032.061.052.007-.046.124-.181.076-.203a.87.87 0 0 1-.234.004c-.139-.061.034-.175-.059-.207zm-.22-24.397c.013.122.196-.396.26-.481a.488.488 0 0 0-.26.481c.003.024-.024-.215 0 0zm4.154 4.111c.075.194-.003-.32-.099-.458-.102.235.023.26.099.458zm3.361 3.039a.177.177 0 0 1 .002.001l-.002-.001.005.001c.029.015.059.032.002 0 .142.071.162-.199.196-.272.082-.169.128.078.192.025.039-.035-.07-.283.109-.239-.152-.034-.024-.184.077-.188.347-.006.326-.186.398-.382-.09-.003-.119.257-.286.27-.154.013-.473.238-.561.209.206.181-.326.468-.132.576zm-6.711-29.019c-.001-.154-.581-.003-.653.176.098-.104.657-.084.653-.176zm1.213.007c-.067-.015-.463.063-.453.183.007.088.421-.163.453-.183zm-3.602-2.989c-.052-.045-.328.119-.302.159.046.062.252-.128.302-.159zm2.692-.206c-.002.061.271.032.287-.052-.022-.061-.067-.091-.133-.091-.085.011-.135.059-.154.143zm17.741.999c.018.045.175.26.24.149.102-.164-.272-.243-.242-.153.028.07.011.023.002.004zm.769 1.821c.05.048.129.158.129.1.003-.026-.079-.077-.129-.1zm6.939 19.571c.024.109.106.177.244.209.027-.103.039-.204.034-.309.063-.006-.052-.623-.203-.369-.072.123.396.489-.075.469zm-22.402 6.777c.011.028-.05-.13 0 0zm12.585-26.698c-.063-.17-.284-.201-.438-.198-.434.005-.172.088-.199.291-.01.066-.229-.003-.271.035.022-.022.588.838.737.833.889-.084.344-.53.179-.946.019.053.034.101-.008-.015zm0 0c.005.003.007.01.007.015-.02-.055-.042-.114-.007-.015zm1.774 1.134c.174-.022.569-.005.702-.125.159-.142-.118-.134-.15-.189-.09-.151-.013-.331-.226-.411-.394-.149-.138.1-.507-.191-.258-.201-.961-.684-1.289-.673-.2.005-.157-.283-.245-.402-.095-.125-.321-.037-.45-.042.199.006-.575-.447-.456-.183.063.135-.107.318.134.356.005 0 .337.333.339.344.03.096 1.771.668 1.017.726a.57.57 0 0 0 .241.189c.131.1-.113.251-.044.292.307.191.496-.051.336.47-.043.135.533-.174.598-.161-.115-.022.191-.025 0 0zm-15.212 1.352c-.016.133.144.277.068.422-.127.241-.524.193-.433.007.08-.161-.601.17-.615.133-.027-.065.177-.053.164-.143-.013-.116-1.746-.024-1.039-.286.011-.007 1.119-1.436 1.284-1.134.054.093-.523.466-.446.546.03.035.166-.105.241-.048.037.028.085.366.26.209.076-.064.524-.069.381.12-.114.147.143.114.135.174zm-.1.117c-.033-.024-.178.103-.113.15-.059-.045.058.042 0 0 .057.044.154-.123.113-.15zm.099.104c.042.072.037-.039 0 0zm-3.343-6.795c-.013.001-.029.001-.069.006.201-.018.262-.056.255-.262-.228.135-.496.154-.705.334.148-.04.294-.064.447-.071l.072-.007zm12.01-.65c.172.029-.07-.097-.032-.122-.316.143-.78-.21-1.146-.104.386.113.779.158 1.178.226-.389-.068.021.005 0 0zm-12.931.978c-.253-.039.08.015 0 0zm11.654-1.193a.088.088 0 0 0 .098-.011c-.067-.048-.102-.044-.098.011zm-7.556 51.567h.004c-.002 0-.004.003-.004.003-.048.045-.063.093-.022.142.069.085.488-.135.431-.203-.086-.091-.31-.033-.409.058zm-3.999-50.122c.015.007.289-.006 0 0zm5.252 42.64c.039.035.206-.135.142-.18-.044-.032-.187.132-.142.18zm-5.252-42.64c.212-.007.572-.146.697-.325-.15-.044-.807.283-.697.325zm.73-.19c-.043-.008-.074.003-.088.045.037.002.08.012.088-.045z" fill-rule="evenodd"/><path d="M192.435 83.308L84.692 28.378c-6.803-3.47-15.204-.742-18.67 6.059L58.42 49.354 48.381 69.042h48.651L62.834 51.608l7.606-14.919c2.234-4.383 7.618-6.133 12.002-3.897l107.741 54.932c4.385 2.236 6.134 7.62 3.896 12.002l-7.604 14.916-32.823-16.734v42.524l15.616 7.961-7.606 14.917c-1.924 3.778-6.188 5.59-10.134 4.593a18.772 18.772 0 0 1-3.002 4.221c6.579 2.652 14.271-.128 17.55-6.563l7.605-14.915 17.207-33.751 7.607-14.918c3.466-6.801.738-15.201-6.06-18.669z"/></g></svg>